<svg width="32" height="32" viewBox="0 0 32 32" fill="none"
  xmlns="http://www.w3.org/2000/svg">
  <path d="M21.8331 4.33313C23.3788 4.33774 24.86 4.95385 25.953 6.04689C27.0461 7.13993 27.6622 8.62109 27.6668 10.1669V21.8331C27.6622 23.3789 27.0461 24.8601 25.953 25.9531C24.86 27.0462 23.3788 27.6623 21.8331 27.6669H10.1668C8.62103 27.6623 7.13987 27.0462 6.04683 25.9531C4.95379 24.8601 4.33768 23.3789 4.33306 21.8331V10.1669C4.33768 8.62109 4.95379 7.13993 6.04683 6.04689C7.13987 4.95385 8.62103 4.33774 10.1668 4.33313H21.8331ZM21.8331 2H10.1668C5.67494 2 1.99994 5.675 1.99994 10.1669V21.8331C1.99994 26.325 5.67494 30 10.1668 30H21.8331C26.3249 30 29.9999 26.325 29.9999 21.8331V10.1669C29.9999 5.675 26.3249 2 21.8331 2Z" fill="#FAFAFA"/>
  <path d="M23.5831 10.1667C23.2369 10.1667 22.8986 10.0641 22.6108 9.87182C22.323 9.67953 22.0987 9.40622 21.9663 9.08644C21.8338 8.76667 21.7992 8.41481 21.8667 8.07534C21.9342 7.73587 22.1009 7.42405 22.3456 7.17931C22.5904 6.93457 22.9022 6.7679 23.2417 6.70037C23.5811 6.63285 23.933 6.66751 24.2528 6.79996C24.5725 6.93241 24.8458 7.15671 25.0381 7.4445C25.2304 7.73229 25.3331 8.07063 25.3331 8.41675C25.3336 8.6467 25.2886 8.87449 25.2009 9.08703C25.1131 9.29957 24.9842 9.49269 24.8216 9.65529C24.659 9.81789 24.4659 9.94677 24.2533 10.0345C24.0408 10.1223 23.813 10.1672 23.5831 10.1667ZM15.9999 11.333C16.923 11.333 17.8253 11.6067 18.5927 12.1195C19.3602 12.6323 19.9583 13.3612 20.3116 14.2139C20.6648 15.0667 20.7572 16.005 20.5771 16.9103C20.3971 17.8156 19.9526 18.6472 19.2999 19.2999C18.6472 19.9525 17.8157 20.397 16.9104 20.5771C16.0051 20.7571 15.0668 20.6647 14.214 20.3115C13.3612 19.9583 12.6324 19.3601 12.1196 18.5927C11.6068 17.8252 11.3331 16.9229 11.3331 15.9999C11.3344 14.7625 11.8265 13.5763 12.7014 12.7014C13.5763 11.8264 14.7626 11.3343 15.9999 11.333ZM15.9999 8.99987C14.6155 8.99987 13.2621 9.41042 12.111 10.1796C10.9598 10.9488 10.0626 12.042 9.53279 13.3211C9.00297 14.6002 8.86435 16.0076 9.13445 17.3655C9.40454 18.7234 10.0712 19.9707 11.0502 20.9496C12.0292 21.9286 13.2764 22.5953 14.6343 22.8654C15.9922 23.1355 17.3996 22.9968 18.6787 22.467C19.9578 21.9372 21.0511 21.04 21.8202 19.8889C22.5894 18.7377 22.9999 17.3843 22.9999 15.9999C22.9999 14.1434 22.2624 12.3629 20.9497 11.0501C19.6369 9.73737 17.8565 8.99987 15.9999 8.99987Z" fill="#FAFAFA"/>
</svg>
