<svg width="32" height="32" viewBox="0 0 32 32" fill="none"
  xmlns="http://www.w3.org/2000/svg">
  <path d="M27.7607 2H4.39253C3.11566 2 2.00003 2.91875 2.00003 4.18062V27.6006C2.00003 28.8694 3.11566 30 4.39253 30H27.7538C29.0375 30 30 28.8619 30 27.6006V4.18062C30.0075 2.91875 29.0375 2 27.7607 2ZM10.6794 25.3394H6.66816V12.8675H10.6794V25.3394ZM8.81253 10.9712H8.78378C7.50003 10.9712 6.66878 10.0156 6.66878 8.81938C6.66878 7.60125 7.52191 6.66813 8.83441 6.66813C10.1469 6.66813 10.95 7.59438 10.9788 8.81938C10.9782 10.0156 10.1469 10.9712 8.81253 10.9712ZM25.3394 25.3394H21.3282V18.52C21.3282 16.8863 20.7444 15.77 19.2932 15.77C18.1844 15.77 17.5282 16.52 17.2363 17.2506C17.1269 17.5131 17.0975 17.8706 17.0975 18.2356V25.3394H13.0863V12.8675H17.0975V14.6031C17.6813 13.7719 18.5932 12.5756 20.715 12.5756C23.3482 12.5756 25.34 14.3113 25.34 18.0531L25.3394 25.3394Z" fill="#FAFAFA"/>
</svg>
