<svg width="32" height="32" viewBox="0 0 32 32" fill="none"
  xmlns="http://www.w3.org/2000/svg">
  <g clip-path="url(#clip0_15_51)">
    <path d="M31.79 9.29937C31.79 6.48687 29.7212 4.22437 27.165 4.22437C23.7025 4.0625 20.1712 4 16.5625 4H15.4375C11.8375 4 8.29995 4.0625 4.83745 4.225C2.28745 4.225 0.218703 6.5 0.218703 9.3125C0.0624528 11.5369 -0.00379718 13.7619 -4.71786e-05 15.9869C-0.00629718 18.2119 0.0645362 20.439 0.212453 22.6681C0.212453 25.4806 2.2812 27.7619 4.8312 27.7619C8.4687 27.9306 12.2 28.0056 15.9937 27.9994C19.7937 28.0119 23.5145 27.9327 27.1562 27.7619C29.7125 27.7619 31.7812 25.4806 31.7812 22.6681C31.9312 20.4369 32 18.2119 31.9937 15.9806C32.0079 13.7556 31.94 11.5285 31.79 9.29937ZM12.9375 22.1181V9.83687L22 15.9744L12.9375 22.1181Z" fill="#FAFAFA"/>
  </g>
  <defs>
    <clipPath id="clip0_15_51">
      <rect width="32" height="32" fill="white"/>
    </clipPath>
  </defs>
</svg>
