<svg width="32" height="32" viewBox="0 0 32 32" fill="none"
  xmlns="http://www.w3.org/2000/svg">
  <path d="M16 2C8.26878 2 2.00003 8.43125 2.00003 16.3562C2.00003 22.7 6.01253 28.075 11.575 29.975C11.6531 29.9919 11.7327 30.0003 11.8125 30C12.3313 30 12.5313 29.6187 12.5313 29.2875C12.5313 28.9437 12.5188 28.0437 12.5125 26.8437C12.0494 26.9523 11.5757 27.0089 11.1 27.0125C8.40628 27.0125 7.79378 24.9187 7.79378 24.9187C7.15628 23.2625 6.23753 22.8187 6.23753 22.8187C5.01878 21.9625 6.23128 21.9375 6.32503 21.9375H6.33128C7.73753 22.0625 8.47503 23.425 8.47503 23.425C9.17503 24.65 10.1125 24.9937 10.95 24.9937C11.5038 24.9827 12.049 24.8549 12.55 24.6187C12.675 23.6937 13.0375 23.0625 13.4375 22.7C10.3313 22.3375 7.06253 21.1062 7.06253 15.6062C7.06253 14.0375 7.60628 12.7562 8.50003 11.7562C8.35628 11.3938 7.87503 9.93125 8.63753 7.95625C8.73981 7.93178 8.84493 7.92126 8.95003 7.925C9.45628 7.925 10.6 8.11875 12.4875 9.43125C14.781 8.78957 17.2066 8.78957 19.5 9.43125C21.3875 8.11875 22.5313 7.925 23.0375 7.925C23.1426 7.92126 23.2478 7.93178 23.35 7.95625C24.1125 9.93125 23.6313 11.3938 23.4875 11.7562C24.3813 12.7625 24.925 14.0437 24.925 15.6062C24.925 21.1187 21.65 22.3312 18.5313 22.6875C19.0313 23.1312 19.4813 24.0062 19.4813 25.3437C19.4813 27.2625 19.4625 28.8125 19.4625 29.2812C19.4625 29.6187 19.6563 30 20.175 30C20.259 30.0004 20.3428 29.992 20.425 29.975C25.9938 28.075 30 22.6938 30 16.3562C30 8.43125 23.7313 2 16 2Z" fill="#FAFAFA"/>
</svg>
